<?xml version="1.0" standalone="no"?>
<!DOCTYPE svg PUBLIC "-//W3C//DTD SVG 20010904//EN"
 "http://www.w3.org/TR/2001/REC-SVG-20010904/DTD/svg10.dtd">
<svg version="1.0" xmlns="http://www.w3.org/2000/svg"
 width="600.000000pt" height="200.000000pt" viewBox="0 0 600.000000 200.000000"
 preserveAspectRatio="xMidYMid meet">

<g transform="translate(0.000000,200.000000) scale(0.100000,-0.100000)"
fill="#000000" stroke="none">
<path d="M0 1000 l0 -1000 3000 0 3000 0 0 1000 0 1000 -3000 0 -3000 0 0
-1000z m3116 779 c252 -78 419 -260 495 -539 18 -68 16 -272 -5 -350 -67 -257
-256 -453 -506 -526 -99 -28 -273 -26 -362 4 -89 31 -94 43 -10 21 78 -21 235
-24 314 -8 29 6 91 29 138 52 147 69 303 248 345 397 7 25 7 24 -26 -6 -75
-69 -153 -118 -285 -178 -77 -34 -171 -86 -210 -114 -96 -70 -180 -104 -275
-110 -93 -5 -138 8 -192 57 -94 85 -125 234 -69 336 38 71 107 115 176 115 44
0 57 -4 77 -26 18 -20 21 -28 10 -32 -8 -2 -31 -20 -52 -39 -76 -68 -75 -158
1 -227 34 -30 47 -36 85 -36 60 0 103 19 142 63 52 60 56 142 12 234 -37 76
-98 129 -207 180 -53 25 -134 62 -179 83 -141 66 -200 151 -191 273 6 71 32
129 84 187 39 43 120 99 174 120 19 7 43 21 52 31 20 20 101 48 172 60 78 12
214 2 292 -22z"/>
<path d="M2742 1766 c-71 -18 -76 -26 -15 -26 76 0 131 -33 166 -101 24 -44
28 -63 24 -103 -4 -41 -11 -55 -41 -83 -23 -22 -46 -33 -65 -33 -38 0 -42 7
-28 57 22 83 -30 173 -100 173 -44 0 -106 -32 -132 -69 -27 -37 -27 -99 -2
-150 34 -65 31 -65 239 -57 155 6 312 21 312 30 0 1 -5 29 -10 62 -27 148 -94
270 -167 300 -39 17 -110 17 -181 0z"/>
<path d="M3060 1697 c0 -2 13 -43 30 -92 16 -48 33 -110 36 -137 4 -26 10 -51
14 -53 7 -4 98 29 108 39 8 9 -66 133 -106 177 -38 42 -82 78 -82 66z"/>
<path d="M3200 1667 c0 -2 20 -39 45 -83 25 -43 45 -84 45 -91 0 -18 7 -16 47
8 19 12 33 28 31 37 -4 22 -168 148 -168 129z"/>
<path d="M3362 1438 c-36 -25 -42 -34 -37 -52 4 -11 14 -63 22 -113 11 -64 20
-93 29 -93 15 0 134 114 134 129 0 16 -40 102 -61 132 -25 36 -33 36 -87 -3z"/>
<path d="M3195 1361 l-50 -18 4 -74 c2 -41 5 -102 5 -136 1 -34 4 -64 7 -67 7
-7 144 58 153 72 8 13 -12 152 -28 200 -15 44 -25 46 -91 23z"/>
<path d="M3005 1318 c-33 -5 -85 -7 -115 -5 -30 2 -82 1 -115 -2 l-60 -7 90
-28 c128 -40 201 -80 262 -143 l53 -56 0 95 c0 53 -3 110 -6 127 -7 35 -9 35
-109 19z"/>
<path d="M3495 1189 c-22 -22 -61 -56 -87 -76 -44 -32 -48 -38 -48 -76 0 -83
-34 -247 -51 -247 -14 0 -19 35 -9 70 16 55 25 190 12 190 -6 0 -33 -11 -60
-25 -61 -31 -76 -31 -98 -2 l-16 22 7 -25 c4 -14 13 -47 21 -75 18 -63 18
-129 -1 -190 -8 -27 -13 -51 -11 -52 2 -2 50 18 107 45 112 53 224 140 274
212 27 39 28 43 22 133 -3 50 -9 102 -14 115 -8 22 -9 22 -48 -19z"/>
</g>
</svg>
